<svg width="196" height="196" viewBox="0 0 196 196" fill="none" xmlns="http://www.w3.org/2000/svg">
<g clip-path="url(#clip0_3_15)">
<path d="M55.9561 49.7943C65.0392 49.7943 72.8976 51.5356 79.5314 55.0182C86.1651 58.3984 91.7783 63.4175 96.3709 70.0755L85.3486 80.6771C81.4705 74.7361 77.082 70.4852 72.1832 67.9245C67.3865 65.2613 61.6713 63.9297 55.0375 63.9297C50.1388 63.9297 46.1075 64.5955 42.9437 65.9271C39.7799 67.2587 37.4326 69.0512 35.9017 71.3047C34.4729 73.4557 33.7585 75.9141 33.7585 78.6797C33.7585 81.855 34.8301 84.6207 36.9734 86.9766C39.2186 89.3325 43.3519 91.1762 49.3733 92.5078L69.8869 97.1172C79.6844 99.2682 86.6244 102.546 90.7067 106.951C94.789 111.355 96.8301 116.937 96.8301 123.698C96.8301 129.946 95.1462 135.375 91.7783 139.984C88.4104 144.594 83.7157 148.128 77.6943 150.586C71.775 153.044 64.784 154.273 56.7215 154.273C49.5775 154.273 43.1478 153.352 37.4326 151.508C31.7174 149.664 26.7166 147.155 22.4301 143.979C18.1437 140.804 14.6227 137.168 11.8672 133.07L23.1956 121.701C25.3388 125.286 28.0433 128.512 31.3092 131.38C34.575 134.146 38.3511 136.297 42.6375 137.833C47.026 139.37 51.8738 140.138 57.1808 140.138C61.8754 140.138 65.9067 139.575 69.2746 138.448C72.7445 137.321 75.347 135.682 77.082 133.531C78.919 131.278 79.8375 128.615 79.8375 125.542C79.8375 122.571 78.817 119.959 76.7758 117.706C74.8367 115.452 71.1626 113.711 65.7536 112.482L43.5561 107.411C37.4326 106.08 32.3808 104.185 28.4005 101.727C24.4203 99.2682 21.4606 96.2977 19.5215 92.8151C17.5824 89.23 16.6129 85.2352 16.6129 80.8307C16.6129 75.0946 18.1437 69.9219 21.2055 65.3125C24.3692 60.6007 28.9108 56.862 34.8301 54.0964C40.7495 51.2283 47.7915 49.7943 55.9561 49.7943Z" fill="#F72222"/>
<path d="M149.765 154.273C145.274 154.273 141.141 153.403 137.365 151.661C133.691 149.92 130.578 147.513 128.027 144.44C125.475 141.265 123.587 137.731 122.362 133.839L124.352 131.227L123.128 152.737H108.738V41.3438H125.118V95.2734L123.281 92.6615C125.22 87.3351 128.537 82.9818 133.232 79.6016C137.926 76.1189 143.59 74.3776 150.224 74.3776C156.348 74.3776 161.961 75.9653 167.064 79.1406C172.269 82.316 176.351 86.8741 179.31 92.8151C182.27 98.7561 183.75 105.977 183.75 114.479C183.75 122.776 182.219 129.895 179.157 135.836C176.198 141.777 172.115 146.335 166.91 149.51C161.808 152.686 156.092 154.273 149.765 154.273ZM146.244 141.06C152.878 141.06 158.031 138.704 161.706 133.992C165.482 129.178 167.37 122.622 167.37 114.326C167.37 106.029 165.533 99.5243 161.859 94.8125C158.185 90.1007 153.031 87.7448 146.397 87.7448C142.111 87.7448 138.385 88.8715 135.222 91.125C132.058 93.276 129.557 96.349 127.72 100.344C125.985 104.339 125.118 109.102 125.118 114.633C125.118 120.062 125.985 124.773 127.72 128.768C129.455 132.661 131.905 135.682 135.069 137.833C138.334 139.984 142.059 141.06 146.244 141.06Z" fill="#F72222"/>
</g>
<defs>
<clipPath id="clip0_3_15">
<rect width="196" height="196" fill="white"/>
</clipPath>
</defs>
</svg>
